<svg width="420" height="420" viewBox="0 0 420 420" fill="none" xmlns="http://www.w3.org/2000/svg">
  <defs>
    <radialGradient id="shadow" cx="0" cy="0" r="1" gradientUnits="userSpaceOnUse" gradientTransform="translate(212 352) rotate(90) scale(22 122)">
      <stop stop-color="#6B3510" stop-opacity="0.22"/>
      <stop offset="1" stop-color="#6B3510" stop-opacity="0"/>
    </radialGradient>
    <linearGradient id="bowlOuter" x1="120" y1="214" x2="306" y2="330" gradientUnits="userSpaceOnUse">
      <stop stop-color="#DB8240"/>
      <stop offset="0.55" stop-color="#A94A19"/>
      <stop offset="1" stop-color="#742B0D"/>
    </linearGradient>
    <linearGradient id="bowlInner" x1="136" y1="184" x2="286" y2="252" gradientUnits="userSpaceOnUse">
      <stop stop-color="#FFF2DA"/>
      <stop offset="1" stop-color="#E2B88A"/>
    </linearGradient>
    <linearGradient id="currySurface" x1="133" y1="144" x2="289" y2="246" gradientUnits="userSpaceOnUse">
      <stop stop-color="#FFD96B"/>
      <stop offset="0.45" stop-color="#F5A729"/>
      <stop offset="1" stop-color="#C85A12"/>
    </linearGradient>
    <linearGradient id="spoonMetal" x1="301" y1="111" x2="355" y2="165" gradientUnits="userSpaceOnUse">
      <stop stop-color="#E2DDD4"/>
      <stop offset="1" stop-color="#A09A92"/>
    </linearGradient>
  </defs>
  <ellipse cx="210" cy="352" rx="122" ry="22" fill="url(#shadow)"/>
  <path d="M103 219C103 185.863 129.863 159 163 159H257C290.137 159 317 185.863 317 219V228C317 286.526 269.526 334 211 334H209C150.474 334 103 286.526 103 228V219Z" fill="url(#bowlOuter)"/>
  <path d="M121 223C121 197.043 142.043 176 168 176H252C277.957 176 299 197.043 299 223V230C299 238.837 291.837 246 283 246H137C128.163 246 121 238.837 121 230V223Z" fill="url(#bowlInner)" fill-opacity="0.78"/>
  <path d="M126 201C126 168.967 151.967 143 184 143H238C270.033 143 296 168.967 296 201V221H126V201Z" fill="url(#currySurface)"/>
  <ellipse cx="211" cy="204" rx="81" ry="18" fill="#FFDA7D" fill-opacity="0.4"/>
  <path d="M144 173C153.116 163.007 166.383 157 181.053 157H241.893C256.163 157 269.124 162.684 278.18 172.176C268.791 170.752 256.047 169 244 169H176C164.642 169 153.073 170.321 144 173Z" fill="#FFF0B8" fill-opacity="0.45"/>
  <g>
    <path d="M157 192L171 182L186 193L180 209L162 210L157 192Z" fill="#E78024"/>
    <path d="M194 179L212 170L227 181L220 198L201 198L194 179Z" fill="#CF6414"/>
    <path d="M231 197L246 186L263 196L258 214L238 216L231 197Z" fill="#B64A0E"/>
    <path d="M173 214L188 204L201 214L196 229L179 230L173 214Z" fill="#D06B16"/>
    <path d="M215 215L232 205L246 215L240 231L223 232L215 215Z" fill="#EB8E23"/>
  </g>
  <g fill="#5C933D">
    <circle cx="165" cy="188" r="4"/>
    <circle cx="181" cy="221" r="4"/>
    <circle cx="210" cy="192" r="5"/>
    <circle cx="226" cy="225" r="4"/>
    <circle cx="254" cy="188" r="4"/>
    <circle cx="244" cy="208" r="3.5"/>
  </g>
  <g fill="#FFF3D2" fill-opacity="0.4">
    <ellipse cx="170" cy="244" rx="31" ry="8"/>
    <ellipse cx="248" cy="244" rx="27" ry="7"/>
  </g>
  <path d="M143 253H277C267.99 285.44 241.119 308 209 308C176.881 308 150.01 285.44 141 253H143Z" fill="#FFE7C9" fill-opacity="0.17"/>
  <path d="M295 131L331 95" stroke="url(#spoonMetal)" stroke-width="14" stroke-linecap="round"/>
  <path d="M308 144L347 106" stroke="#8F877F" stroke-width="5" stroke-linecap="round"/>
  <ellipse cx="282" cy="153" rx="16" ry="12" transform="rotate(-18 282 153)" fill="url(#spoonMetal)"/>
</svg>
